/* XPM */
static char *Ground[] = {
/* columns rows colors chars-per-pixel */
"128 128 6 1 ",
"  c #1E1F28",
". c #1E1D2D",
"X c #22232E",
"o c #222034",
"O c #272735",
"+ c #2D2C3E",
/* pixels */
"oooooooooooooooooooooooooooooooooooooooooooooooooooooooooooooooooooooooooooooooooooooooooooooooooooooooooooooooooooooooooooooooo",
"oooooooooooooooooooooooooooooooooooooooooooooooooooooooooooooooooooooooooooooooooooooooooooooooooooooooooooooooooooooooooooooooo",
"oooooooooooooooooooooooooooooooooooooooooooooooooooooooooooooooooooooooooooooooooooooooooooooooooooooooooooooooooooooooooooooooo",
"oooooooooooooooooooooooooooooooooooooooooooooooooooooooooooooooooooooooooooooooooooooooooooooooooooooooooooooooooooooooooooooooo",
"oooo++++++++++++++++++++++++++++++++++++++++++++++++++++++++++++++++++++++++++++++++++++++++++++++++++++++++++++++++++++++++oooo",
"oooo++++++++++++++++++++++++++++++++++++++++++++++++++++++++++++++++++++++++++++++++++++++++++++++++++++++++++++++++++++++++oooo",
"oooo++++++++++++++++++++++++++++++++++++++++++++++++++++++++++++++++++++++++++++++++++++++++++++++++++++++++++++++++++++++++oooo",
"oooo++++++++++++++++++++++++++++++++++++++++++++++++++++++++++++++++++++++++++++++++++++++++++++++++++++++++++++++++++++++++oooo",
"oooo++++++++++++++++++++++++++++++++++++++++++++++++++++++++++++++++++++++++++++++++++++++++++++++++++++++++++++++++++++++++oooo",
"oooo++++++++++++++++++++++++++++++++++++++++++++++++++++++++++++++++++++++++++++++++++++++++++++++++++++++++++++++++++++++++oooo",
"oooo++++++++++++++++++++++++++++++++++++++++++++++++++++++++++++++++++++++++++++++++++++++++++++++++++++++++++++++++++++++++oooo",
"oooo++++++++++++++++++++++++++++++++++++++++++++++++++++++++++++++++++++++++++++++++++++++++++++++++++++++++++++++++++++++++oooo",
"ooooOOOO++++++++++++OOOO++++++++++++OOOO++++++++++++++++++++++++++++++++++++++++++++++++++++++++++++++++++++++++++++++++++++oooo",
"ooooOOOO++++++++++++OOOO++++++++++++OOOO++++++++++++++++++++++++++++++++++++++++++++++++++++++++++++++++++++++++++++++++++++oooo",
"ooooOOOO++++++++++++OOOO++++++++++++OOOO++++++++++++++++++++++++++++++++++++++++++++++++++++++++++++++++++++++++++++++++++++oooo",
"ooooOOOO++++++++++++OOOO++++++++++++OOOO++++++++++++++++++++++++++++++++++++++++++++++++++++++++++++++++++++++++++++++++++++oooo",
"oooo++++++++++++++++++++++++++++++++++++++++++++++++++++++++++++++++++++++++++++++++++++++++++++++++++++++++++++++++++++++++oooo",
"oooo++++++++++++++++++++++++++++++++++++++++++++++++++++++++++++++++++++++++++++++++++++++++++++++++++++++++++++++++++++++++oooo",
"oooo++++++++++++++++++++++++++++++++++++++++++++++++++++++++++++++++++++++++++++++++++++++++++++++++++++++++++++++++++++++++oooo",
"oooo++++++++++++++++++++++++++++++++++++++++++++++++++++++++++++++++++++++++++++++++++++++++++++++++++++++++++++++++++++++++oooo",
"oooo++++++++++++++++OOOO++++++++++++++++++++++++++++++++++++++++++++OOOO++++++++++++++++++++++++++++++++++++++++++++++++++++oooo",
"oooo++++++++++++++++OOOO++++++++++++++++++++++++++++++++++++++++++++OOOO++++++++++++++++++++++++++++++++++++++++++++++++++++oooo",
"oooo++++++++++++++++OOOO++++++++++++++++++++++++++++++++++++++++++++OOOO++++++++++++++++++++++++++++++++++++++++++++++++++++oooo",
"oooo++++++++++++++++OOOO++++++++++++++++++++++++++++++++++++++++++++OOOO++++++++++++++++++++++++++++++++++++++++++++++++++++oooo",
"oooo++++++++++++++++++++++++++++++++++++++++++++OOOO++++++++++++++++OOOO++++XXXX++++++++++++++++++++++++++++++++++++++++++++oooo",
"oooo++++++++++++++++++++++++++++++++++++++++++++OOOO++++++++++++++++OOOO++++XXXX++++++++++++++++++++++++++++++++++++++++++++oooo",
"oooo++++++++++++++++++++++++++++++++++++++++++++OOOO++++++++++++++++OOOO++++XXXX++++++++++++++++++++++++++++++++++++++++++++oooo",
"oooo++++++++++++++++++++++++++++++++++++++++++++OOOO++++++++++++++++OOOO++++XXXX++++++++++++++++++++++++++++++++++++++++++++oooo",
"oooo++++++++++++++++OOOO++++++++++++++++++++++++++++++++++++++++++++++++++++++++++++++++++++++++++++++++++++++++++++++++++++oooo",
"oooo++++++++++++++++OOOO++++++++++++++++++++++++++++++++++++++++++++++++++++++++++++++++++++++++++++++++++++++++++++++++++++oooo",
"oooo++++++++++++++++OOOO++++++++++++++++++++++++++++++++++++++++++++++++++++++++++++++++++++++++++++++++++++++++++++++++++++oooo",
"oooo++++++++++++++++OOOO++++++++++++++++++++++++++++++++++++++++++++++++++++++++++++++++++++++++++++++++++++++++++++++++++++oooo",
"oooo++++++++++++++++OOOO++++++++++++++++OOOO++++++++++++++++++++++++++++++++++++++++OOOOOOOO++++++++++++++++OOOO++++++++++++oooo",
"oooo++++++++++++++++OOOO++++++++++++++++OOOO++++++++++++++++++++++++++++++++++++++++OOOOOOOO++++++++++++++++OOOO++++++++++++oooo",
"oooo++++++++++++++++OOOO++++++++++++++++OOOO++++++++++++++++++++++++++++++++++++++++OOOOOOOO++++++++++++++++OOOO++++++++++++oooo",
"oooo++++++++++++++++OOOO++++++++++++++++OOOO++++++++++++++++++++++++++++++++++++++++OOOOOOOO++++++++++++++++OOOO++++++++++++oooo",
"oooo++++++++++++++++++++++++++++++++++++++++++++OOOO++++++++++++++++++++++++++++++++++++OOOO++++++++++++++++++++++++++++++++oooo",
"oooo++++++++++++++++++++++++++++++++++++++++++++OOOO++++++++++++++++++++++++++++++++++++OOOO++++++++++++++++++++++++++++++++oooo",
"oooo++++++++++++++++++++++++++++++++++++++++++++OOOO++++++++++++++++++++++++++++++++++++OOOO++++++++++++++++++++++++++++++++oooo",
"oooo++++++++++++++++++++++++++++++++++++++++++++OOOO++++++++++++++++++++++++++++++++++++OOOO++++++++++++++++++++++++++++++++oooo",
"oooo++++++++++++++++++++++++++++OOOO++++++++++++++++++++++++OOOO++++++++++++++++++++++++++++++++++++++++++++++++++++++++++++oooo",
"oooo++++++++++++++++++++++++++++OOOO++++++++++++++++++++++++OOOO++++++++++++++++++++++++++++++++++++++++++++++++++++++++++++oooo",
"oooo++++++++++++++++++++++++++++OOOO++++++++++++++++++++++++OOOO++++++++++++++++++++++++++++++++++++++++++++++++++++++++++++oooo",
"oooo++++++++++++++++++++++++++++OOOO++++++++++++++++++++++++OOOO++++++++++++++++++++++++++++++++++++++++++++++++++++++++++++oooo",
"oooo++++++++++++OOOO++++++++++++OOOO++++++++++++++++++++++++++++++++OOOO++++++++++++++++++++++++++++++++++++++++++++++++++++oooo",
"oooo++++++++++++OOOO++++++++++++OOOO++++++++++++++++++++++++++++++++OOOO++++++++++++++++++++++++++++++++++++++++++++++++++++oooo",
"oooo++++++++++++OOOO++++++++++++OOOO++++++++++++++++++++++++++++++++OOOO++++++++++++++++++++++++++++++++++++++++++++++++++++oooo",
"oooo++++++++++++OOOO++++++++++++OOOO++++++++++++++++++++++++++++++++OOOO++++++++++++++++++++++++++++++++++++++++++++++++++++oooo",
"oooo++++++++++++++++++++OOOO++++++++++++OOOO++++++++++++++++OOOO++++++++++++OOOO++++++++++++++++++++OOOO++++++++++++++++++++oooo",
"oooo++++++++++++++++++++OOOO++++++++++++OOOO++++++++++++++++OOOO++++++++++++OOOO++++++++++++++++++++OOOO++++++++++++++++++++oooo",
"oooo++++++++++++++++++++OOOO++++++++++++OOOO++++++++++++++++OOOO++++++++++++OOOO++++++++++++++++++++OOOO++++++++++++++++++++oooo",
"oooo++++++++++++++++++++OOOO++++++++++++OOOO++++++++++++++++OOOO++++++++++++OOOO++++++++++++++++++++OOOO++++++++++++++++++++oooo",
"oooo++++++++++++++++++++OOOO++++++++++++++++++++++++++++++++++++++++++++OOOO++++++++++++XXXX++++++++++++++++++++++++++++++++oooo",
"oooo++++++++++++++++++++OOOO++++++++++++++++++++++++++++++++++++++++++++OOOO++++++++++++XXXX++++++++++++++++++++++++++++++++oooo",
"oooo++++++++++++++++++++OOOO++++++++++++++++++++++++++++++++++++++++++++OOOO++++++++++++XXXX++++++++++++++++++++++++++++++++oooo",
"oooo++++++++++++++++++++OOOO++++++++++++++++++++++++++++++++++++++++++++OOOO++++++++++++XXXX++++++++++++++++++++++++++++++++oooo",
"oooo++++++++++++++++++++++++++++++++OOOOOOOO++++++++++++++++++++OOOO++++++++++++++++OOOO++++++++++++++++++++++++++++++++++++oooo",
"oooo++++++++++++++++++++++++++++++++OOOOOOOO++++++++++++++++++++OOOO++++++++++++++++OOOO++++++++++++++++++++++++++++++++++++oooo",
"oooo++++++++++++++++++++++++++++++++OOOOOOOO++++++++++++++++++++OOOO++++++++++++++++OOOO++++++++++++++++++++++++++++++++++++oooo",
"oooo++++++++++++++++++++++++++++++++OOOOOOOO++++++++++++++++++++OOOO++++++++++++++++OOOO++++++++++++++++++++++++++++++++++++oooo",
"oooo++++++++++++++++OOOO++++++++OOOOOOOOOOOO++++OOOO++++OOOO++++++++OOOO++++++++++++++++++++++++++++++++++++++++++++++++++++oooo",
"oooo++++++++++++++++OOOO++++++++OOOOOOOOOOOO++++OOOO++++OOOO++++++++OOOO++++++++++++++++++++++++++++++++++++++++++++++++++++oooo",
"oooo++++++++++++++++OOOO++++++++OOOOOOOOOOOO++++OOOO++++OOOO++++++++OOOO++++++++++++++++++++++++++++++++++++++++++++++++++++oooo",
"oooo++++++++++++++++OOOO++++++++OOOOOOOOOOOO++++OOOO++++OOOO++++++++OOOO++++++++++++++++++++++++++++++++++++++++++++++++++++oooo",
"oooo++++++++++++++++++++++++++++++++++++++++++++++++++++++++++++++++++++XXXX++++++++++++++++++++++++OOOO++++++++++++++++OOOOoooo",
"oooo++++++++++++++++++++++++++++++++++++++++++++++++++++++++++++++++++++XXXX++++++++++++++++++++++++OOOO++++++++++++++++OOOOoooo",
"oooo++++++++++++++++++++++++++++++++++++++++++++++++++++++++++++++++++++XXXX++++++++++++++++++++++++OOOO++++++++++++++++OOOOoooo",
"oooo++++++++++++++++++++++++++++++++++++++++++++++++++++++++++++++++++++XXXX++++++++++++++++++++++++OOOO++++++++++++++++OOOOoooo",
"oooo++++++++++++OOOO++++++++++++++++++++++++++++++++++++++++OOOO++++++++++++++++++++++++++++++++++++++++++++++++++++++++++++oooo",
"oooo++++++++++++OOOO++++++++++++++++++++++++++++++++++++++++OOOO++++++++++++++++++++++++++++++++++++++++++++++++++++++++++++oooo",
"oooo++++++++++++OOOO++++++++++++++++++++++++++++++++++++++++OOOO++++++++++++++++++++++++++++++++++++++++++++++++++++++++++++oooo",
"oooo++++++++++++OOOO++++++++++++++++++++++++++++++++++++++++OOOO++++++++++++++++++++++++++++++++++++++++++++++++++++++++++++oooo",
"oooo++++++++OOOO++++++++++++++++++++++++OOOO++++++++OOOO++++++++++++OOOO++++++++++++++++++++++++++++++++++++++++++++++++++++oooo",
"oooo++++++++OOOO++++++++++++++++++++++++OOOO++++++++OOOO++++++++++++OOOO++++++++++++++++++++++++++++++++++++++++++++++++++++oooo",
"oooo++++++++OOOO++++++++++++++++++++++++OOOO++++++++OOOO++++++++++++OOOO++++++++++++++++++++++++++++++++++++++++++++++++++++oooo",
"oooo++++++++OOOO++++++++++++++++++++++++OOOO++++++++OOOO++++++++++++OOOO++++++++++++++++++++++++++++++++++++++++++++++++++++oooo",
"oooo++++++++++++++++++++++++++++OOOOOOOO++++OOOO++++++++++++++++++++++++++++++++++++++++++++++++++++++++++++++++++++++++++++oooo",
"oooo++++++++++++++++++++++++++++OOOOOOOO++++OOOO++++++++++++++++++++++++++++++++++++++++++++++++++++++++++++++++++++++++++++oooo",
"oooo++++++++++++++++++++++++++++OOOOOOOO++++OOOO++++++++++++++++++++++++++++++++++++++++++++++++++++++++++++++++++++++++++++oooo",
"oooo++++++++++++++++++++++++++++OOOOOOOO++++OOOO++++++++++++++++++++++++++++++++++++++++++++++++++++++++++++++++++++++++++++oooo",
"oooo++++XXXX++++++++++++++++++++++++++++++++++++OOOOOOOO++++++++++++++++++++++++++++++++++++++++OOOO++++++++++++++++++++++++oooo",
"oooo++++XXXX++++++++++++++++++++++++++++++++++++OOOOOOOO++++++++++++++++++++++++++++++++++++++++OOOO++++++++++++++++++++++++oooo",
"oooo++++XXXX++++++++++++++++++++++++++++++++++++OOOOOOOO++++++++++++++++++++++++++++++++++++++++OOOO++++++++++++++++++++++++oooo",
"oooo++++XXXX++++++++++++++++++++++++++++++++++++OOOOOOOO++++++++++++++++++++++++++++++++++++++++OOOO++++++++++++++++++++++++oooo",
"ooooOOOOOOOO++++++++++++++++++++++++OOOOOOOO++++OOOO++++OOOO++++OOOO++++OOOO++++++++OOOO++++++++++++++++++++++++++++++++++++oooo",
"ooooOOOOOOOO++++++++++++++++++++++++OOOOOOOO++++OOOO++++OOOO++++OOOO++++OOOO++++++++OOOO++++++++++++++++++++++++++++++++++++oooo",
"ooooOOOOOOOO++++++++++++++++++++++++OOOOOOOO++++OOOO++++OOOO++++OOOO++++OOOO++++++++OOOO++++++++++++++++++++++++++++++++++++oooo",
"ooooOOOOOOOO++++++++++++++++++++++++OOOOOOOO++++OOOO++++OOOO++++OOOO++++OOOO++++++++OOOO++++++++++++++++++++++++++++++++++++oooo",
"oooo++++++++++++++++++++OOOO++++++++++++OOOO++++    OOOO++++++++++++++++++++++++++++++++++++++++++++OOOO++++++++++++++++++++oooo",
"oooo++++++++++++++++++++OOOO++++++++++++OOOO++++    OOOO++++++++++++++++++++++++++++++++++++++++++++OOOO++++++++++++++++++++oooo",
"oooo++++++++++++++++++++OOOO++++++++++++OOOO++++    OOOO++++++++++++++++++++++++++++++++++++++++++++OOOO++++++++++++++++++++oooo",
"oooo++++++++++++++++++++OOOO++++++++++++OOOO++++    OOOO++++++++++++++++++++++++++++++++++++++++++++OOOO++++++++++++++++++++oooo",
"oooo++++++++++++++++++++++++++++++++++++++++OOOO++++++++++++++++++++++++++++++++++++OOOO++++++++++++++++++++++++++++++++++++oooo",
"oooo++++++++++++++++++++++++++++++++++++++++OOOO++++++++++++++++++++++++++++++++++++OOOO++++++++++++++++++++++++++++++++++++oooo",
"oooo++++++++++++++++++++++++++++++++++++++++OOOO++++++++++++++++++++++++++++++++++++OOOO++++++++++++++++++++++++++++++++++++oooo",
"oooo++++++++++++++++++++++++++++++++++++++++OOOO++++++++++++++++++++++++++++++++++++OOOO++++++++++++++++++++++++++++++++++++oooo",
"oooo++++++++++++OOOO++++++++++++++++++++++++++++++++++++OOOO++++++++++++++++++++++++++++++++++++++++++++++++++++++++++++++++oooo",
"oooo++++++++++++OOOO++++++++++++++++++++++++++++++++++++OOOO++++++++++++++++++++++++++++++++++++++++++++++++++++++++++++++++oooo",
"oooo++++++++++++OOOO++++++++++++++++++++++++++++++++++++OOOO++++++++++++++++++++++++++++++++++++++++++++++++++++++++++++++++oooo",
"oooo++++++++++++OOOO++++++++++++++++++++++++++++++++++++OOOO++++++++++++++++++++++++++++++++++++++++++++++++++++++++++++++++oooo",
"oooo++++++++++++++++++++++++++++OOOO++++++++OOOO++++++++++++++++++++++++++++++++++++++++++++++++++++++++++++++++++++++++++++oooo",
"oooo++++++++++++++++++++++++++++OOOO++++++++OOOO++++++++++++++++++++++++++++++++++++++++++++++++++++++++++++++++++++++++++++oooo",
"oooo++++++++++++++++++++++++++++OOOO++++++++OOOO++++++++++++++++++++++++++++++++++++++++++++++++++++++++++++++++++++++++++++oooo",
"oooo++++++++++++++++++++++++++++OOOO++++++++OOOO++++++++++++++++++++++++++++++++++++++++++++++++++++++++++++++++++++++++++++oooo",
"oooo++++++++++++++++++++++++++++++++++++OOOO++++++++++++++++++++++++++++++++++++++++++++++++++++++++++++++++++++++++++++++++oooo",
"oooo++++++++++++++++++++++++++++++++++++OOOO++++++++++++++++++++++++++++++++++++++++++++++++++++++++++++++++++++++++++++++++oooo",
"oooo++++++++++++++++++++++++++++++++++++OOOO++++++++++++++++++++++++++++++++++++++++++++++++++++++++++++++++++++++++++++++++oooo",
"oooo++++++++++++++++++++++++++++++++++++OOOO++++++++++++++++++++++++++++++++++++++++++++++++++++++++++++++++++++++++++++++++oooo",
"....++++++++++++++++++++++++++++++++++++++++++++OOOO++++++++++++++++OOOO++++OOOO++++++++++++++++++++++++++++++++++++++++++++oooo",
"....++++++++++++++++++++++++++++++++++++++++++++OOOO++++++++++++++++OOOO++++OOOO++++++++++++++++++++++++++++++++++++++++++++oooo",
"....++++++++++++++++++++++++++++++++++++++++++++OOOO++++++++++++++++OOOO++++OOOO++++++++++++++++++++++++++++++++++++++++++++oooo",
"....++++++++++++++++++++++++++++++++++++++++++++OOOO++++++++++++++++OOOO++++OOOO++++++++++++++++++++++++++++++++++++++++++++oooo",
"oooo++++OOOO++++++++++++++++++++++++++++++++++++++++++++++++++++++++++++++++++++++++++++++++OOOO++++++++++++++++++++++++++++oooo",
"oooo++++OOOO++++++++++++++++++++++++++++++++++++++++++++++++++++++++++++++++++++++++++++++++OOOO++++++++++++++++++++++++++++oooo",
"oooo++++OOOO++++++++++++++++++++++++++++++++++++++++++++++++++++++++++++++++++++++++++++++++OOOO++++++++++++++++++++++++++++oooo",
"oooo++++OOOO++++++++++++++++++++++++++++++++++++++++++++++++++++++++++++++++++++++++++++++++OOOO++++++++++++++++++++++++++++oooo",
"....++++++++++++++++++++++++++++++++++++++++++++++++++++++++++++++++++++++++++++++++++++++++++++++++++++++++++++++++++++++++oooo",
"....++++++++++++++++++++++++++++++++++++++++++++++++++++++++++++++++++++++++++++++++++++++++++++++++++++++++++++++++++++++++oooo",
"....++++++++++++++++++++++++++++++++++++++++++++++++++++++++++++++++++++++++++++++++++++++++++++++++++++++++++++++++++++++++oooo",
"....++++++++++++++++++++++++++++++++++++++++++++++++++++++++++++++++++++++++++++++++++++++++++++++++++++++++++++++++++++++++oooo",
"oooo++++++++++++++++++++++++++++++++OOOO++++++++++++++++++++++++++++++++OOOO++++++++++++++++OOOO++++++++++++++++++++++++++++oooo",
"oooo++++++++++++++++++++++++++++++++OOOO++++++++++++++++++++++++++++++++OOOO++++++++++++++++OOOO++++++++++++++++++++++++++++oooo",
"oooo++++++++++++++++++++++++++++++++OOOO++++++++++++++++++++++++++++++++OOOO++++++++++++++++OOOO++++++++++++++++++++++++++++oooo",
"oooo++++++++++++++++++++++++++++++++OOOO++++++++++++++++++++++++++++++++OOOO++++++++++++++++OOOO++++++++++++++++++++++++++++oooo",
"oooooooooooooooooooo....oooooooooooooooooooooooooooooooooooo....oooooooooooo....oooooooooooooooooooooooooooooooooooooooooooooooo",
"oooooooooooooooooooo....oooooooooooooooooooooooooooooooooooo....oooooooooooo....oooooooooooooooooooooooooooooooooooooooooooooooo",
"oooooooooooooooooooo....oooooooooooooooooooooooooooooooooooo....oooooooooooo....oooooooooooooooooooooooooooooooooooooooooooooooo",
"oooooooooooooooooooo....oooooooooooooooooooooooooooooooooooo....oooooooooooo....oooooooooooooooooooooooooooooooooooooooooooooooo"
};