/* XPM */
static char *Boxed_SSS1[] = {
/* columns rows colors chars-per-pixel */
"64 64 8 1 ",
"  c None",
". c black",
"X c #6C3900",
"o c #696A6A",
"O c #804400",
"+ c #975000",
"@ c #9B570B",
"# c #EEC39A",
/* pixels */
"                                                                ",
"                                                                ",
"                                                                ",
"                                                                ",
"                                                                ",
"                                                                ",
"                                                                ",
"                                                                ",
"                                                                ",
"                                                                ",
"                                                                ",
"                                                                ",
"                                                                ",
"                                                                ",
"                                                                ",
"                                                                ",
"                                                                ",
"                                                                ",
"        ++++++++++++++++++++++++++++++++++++++++++++OOOO        ",
"        ++++++++++++++++++++++++++++++++++++++++++++OOOO        ",
"        ++++++++++++++++@@@@@@@@@@@@@@++++++++++++++OOOO        ",
"        ++++++++++++++++@@@@@@@@@@@@@@++++++++++++++OOOO        ",
"        ++++++++++++++@@@@@@@@@@@@@@@@@@++++++++++++OOOO        ",
"        ++++++++++++++@@@@@@@@@@@@@@@@@@++++++++++++OOOO        ",
"        XX######XX##XXXX##XX##XXXX##XX##XXXX##XX##XXOOOO        ",
"        XX######XX##XXXX##XX##XXXX##XX##XXXX##XX##XXOOOO        ",
"        ++##++++++##++++##++##++++##++##++++##++##++OOOO        ",
"        ++##++++++##++++##++##++++##++##++++##++##++OOOO        ",
"        XX######XX########XX########XX########XX##XXOOOO        ",
"        XX######XX########XX########XX########XX##XXOOOO        ",
"        ++++++##++##@@@@##@@##@@@@##@@##++++##++++++OOOO        ",
"        ++++++##++##@@@@##@@##@@@@##@@##++++##++++++OOOO        ",
"        XX######XX##XXXX##XX##XXXX##XX##XXXX##XX##XXOOOO        ",
"        XX######XX##XXXX##XX##XXXX##XX##XXXX##XX##XXOOOO        ",
"        ++++++++++++++@@@@@@@@@@@@@@@@@@++++++++++++OOOO        ",
"        ++++++++++++++@@@@@@@@@@@@@@@@@@++++++++++++OOOO        ",
"        ++XXXXXXXXXXXXXXXXXXXXXXXXXXXXXXXXXXXXXXXXXXOOOO        ",
"        ++XXXXXXXXXXXXXXXXXXXXXXXXXXXXXXXXXXXXXXXXXXOOOO        ",
"        ++XXXXXXXXXXXXXXXXXXXXXXXXXXXXXXXXXXXXXXXXXXOOOO        ",
"        ++XXXXXXXXXXXXXXXXXXXXXXXXXXXXXXXXXXXXXXXXXXOOOO        ",
"        ++@@@@@@@@@@@@@@@@@@@@@@@@@@@@@@@@@@@@@@@@@@OOOO        ",
"        ++@@@@@@@@@@@@@@@@@@@@@@@@@@@@@@@@@@@@@@@@@@OOOO        ",
"        ++@@@@@@@@@@@@@@@@@@@@@@@@@@@@@@@@@@@@@@@@@@OOOO        ",
"        ++@@@@@@@@@@@@@@@@@@@@@@@@@@@@@@@@@@@@@@@@@@OOOO        ",
"        ++++++++++++++++++++++++++++++++++++++++++++OOOO        ",
"        ++++++++++++++++++++++++++++++++++++++++++++OOOO        ",
"      ++++++oooooooooooooo        oooooooooooooo    ++++        ",
"      ++++++oooooooooooooo        oooooooooooooo    ++++        ",
"    ++++++  oooooooooooooo        oooooooooooooo    ++++++      ",
"    ++++++  oooooooooooooo        oooooooooooooo    ++++++      ",
"    ++++    oooooooooooooo        oooooooooooooo      ++++++    ",
"    ++++    oooooooooooooo        oooooooooooooo      ++++++    ",
"            oooooooooooooo        oooooooooooooo        ++++    ",
"            oooooooooooooo        oooooooooooooo        ++++    ",
"            ..................    ..................            ",
"            ..................    ..................            ",
"            ..................    ..................            ",
"            ..................    ..................            ",
"            ..................    ..................            ",
"            ..................    ..................            ",
"            ..................    ..................            ",
"            ..................    ..................            ",
"            ..................    ..................            ",
"            ..................    ..................            "
};